<svg width="152" height="30" viewBox="0 0 152 30" fill="none" xmlns="http://www.w3.org/2000/svg">
<path d="M1.68823 11.8631C2.26194 12.4195 2.99711 12.852 3.89217 13.1578C4.78723 13.4636 5.84218 13.6158 7.05858 13.6158H21.4485C23.1461 13.6158 23.9957 14.293 23.9957 15.6474V16.8929C23.9957 17.1763 23.9205 17.4448 23.7716 17.6954C23.6226 17.9475 23.4267 18.1698 23.1869 18.3666C22.9455 18.5635 22.6712 18.7157 22.3608 18.8246C22.0504 18.9335 21.7463 18.9887 21.4485 18.9887H0.344856V23.1161H21.4469C22.5708 23.1161 23.5756 22.9579 24.4597 22.6417C25.3422 22.3255 26.0837 21.8884 26.6793 21.332C27.2765 20.7757 27.7343 20.1208 28.0556 19.3661C28.377 18.6128 28.5368 17.7879 28.5368 16.8929V15.6474C28.5368 14.7748 28.3926 13.9603 28.1058 13.207C27.8189 12.4538 27.3831 11.7989 26.7984 11.241C26.2138 10.6847 25.4786 10.2476 24.5961 9.93139C23.712 9.61516 22.6617 9.45704 21.4469 9.45704H7.05701C5.38132 9.45704 4.54426 8.76939 4.54426 7.3926V6.24552C4.54426 5.96211 4.61794 5.69361 4.76842 5.44302C4.91733 5.19242 5.11327 4.96867 5.35311 4.77178C5.5945 4.57488 5.86412 4.42273 6.16195 4.31384C6.45978 4.20495 6.75918 4.14976 7.05701 4.14976H28.1246V0.0551902H7.05701C5.90958 0.0551902 4.90009 0.219273 4.02698 0.545943C3.15387 0.874106 2.42026 1.31563 1.8246 1.87201C1.22737 2.4284 0.774358 3.08472 0.463988 3.838C0.153618 4.59129 0 5.39379 0 6.24552V7.3926C0 8.30996 0.137942 9.14528 0.413827 9.89857C0.689712 10.6518 1.11294 11.3067 1.68823 11.8631Z" fill="#024D7F"/>
<path d="M98.0097 5.26999C98.0097 4.66438 98.5269 4.17214 99.1649 4.17214H117.254C117.919 4.17214 118.378 4.28103 118.63 4.49881C118.883 4.71659 119.008 5.14171 119.008 5.77417V5.90543C119.008 6.47226 118.881 6.87649 118.63 7.11665C118.378 7.35681 117.919 7.47613 117.254 7.47613H105.86C103.772 7.47613 102.286 7.89678 101.402 8.73658C100.518 9.57637 100.076 10.901 100.076 12.7118V13.5949C100.076 14.4899 100.173 15.2745 100.369 15.9502C100.563 16.6259 100.884 17.1882 101.333 17.6357C101.78 18.0832 102.366 18.4204 103.088 18.6501C103.811 18.8783 104.7 18.9931 105.756 18.9931H117.289C117.886 18.9931 118.304 19.102 118.546 19.3198C118.787 19.5376 118.908 19.9642 118.908 20.5952V23.1146H123.452V20.1387C123.452 19.3317 123.36 18.6068 123.176 17.9624C122.993 17.3195 122.672 16.7676 122.212 16.3097C121.753 15.8517 121.139 15.5027 120.37 15.2625C119.601 15.0224 118.62 14.903 117.427 14.903H106.41C105.744 14.903 105.285 14.7837 105.034 14.5436C104.781 14.3034 104.654 13.9007 104.654 13.3323V13.2011C104.654 12.5686 104.78 12.1435 105.034 11.9257C105.286 11.7079 105.745 11.599 106.41 11.599H117.289C118.436 11.599 119.406 11.5006 120.198 11.3052C120.99 11.1083 121.639 10.7936 122.143 10.3565C122.648 9.92094 123.009 9.35859 123.228 8.67094C123.446 7.98329 123.556 7.14947 123.556 6.16796V5.31772C123.556 4.46749 123.446 3.7142 123.228 3.05937C123.01 2.40454 122.654 1.85412 122.161 1.40663C121.667 0.959132 121.013 0.626495 120.198 0.408714C119.383 0.190934 118.38 0.0820433 117.185 0.0820433H96.798C94.9389 0.0820433 93.4309 1.51402 93.4309 3.28162V23.1161H98.0097V5.26999Z" fill="#024D7F"/>
<path d="M131.194 0.0537017H126.617V23.1161H131.194V0.0537017Z" fill="#024D7F"/>
<path d="M36.3917 26.4379H0.343289V29.4943H36.3917V26.4379Z" fill="#024D7F"/>
<path d="M151.998 26.4379H57.0313V29.4943H151.998V26.4379Z" fill="#024D7F"/>
<path d="M148.213 16.1754V23.1161H152V15.716C152 13.6351 150.227 11.9481 148.04 11.9481H133.229V15.5519H147.558C147.918 15.5519 148.213 15.8323 148.213 16.1754Z" fill="#024D7F"/>
<path d="M152 7.1435V0.0522085H148.213V6.15752C148.213 6.78998 147.669 7.30758 147.006 7.30758H133.229V10.9114H148.04C150.227 10.9114 152 9.22435 152 7.1435Z" fill="#024D7F"/>
<path d="M55.4325 0.0537017C51.0356 0.0537017 47.4585 3.45763 47.4585 7.6417V25.1954C47.4585 25.5803 47.1167 25.9054 46.7123 25.9054C46.3079 25.9054 45.9662 25.5803 45.9662 25.1954V7.6432C45.9662 3.45913 42.3891 0.0551902 37.9922 0.0551902H30.1592V4.14976H37.9922C40.0174 4.14976 41.6633 5.71748 41.6633 7.6432L41.6774 25.537C41.8624 28.0266 44.0491 30 46.7123 30C49.3755 30 51.5622 28.028 51.7472 25.537L51.7613 7.6432C51.7613 5.71748 53.4088 4.14976 55.4325 4.14976H63.2638V0.0551902H55.4325V0.0537017Z" fill="#024D7F"/>
<path d="M86.5746 6.20973C85.4616 0.753282 80.4941 0 77.3183 0H74.8604C71.5012 0 66.7438 0.748806 65.612 6.17094L61.3201 23.1175H65.7468L69.8067 7.08682L69.8271 6.99583C70.103 5.63992 70.8507 4.80758 72.1799 4.37351C73.2035 4.03938 78.7494 3.99314 79.8953 4.34218C81.2888 4.76432 82.0679 5.6086 82.3501 6.99732L82.6338 8.36516H87.0229L86.5746 6.20973Z" fill="#024D7F"/>
<path d="M88.8412 16.2261C87.7282 10.7697 82.6056 10.0164 79.5849 10.0164H71.1407L70.0497 14.111C70.0497 14.111 81.0177 14.0095 82.1651 14.3571C83.5586 14.7792 84.3377 15.6235 84.6198 17.0122L85.913 23.1175H90.3021L88.8412 16.2261Z" fill="#024D7F"/>
</svg>
