<svg width="34" height="30" viewBox="0 0 34 30" fill="none" xmlns="http://www.w3.org/2000/svg">
<path d="M25.2732 0C20.8763 0 17.2992 3.40393 17.2992 7.588V25.1417C17.2992 25.5266 16.9575 25.8517 16.5531 25.8517C16.1487 25.8517 15.8069 25.5266 15.8069 25.1417V7.5895C15.8069 3.40543 12.2299 0.00148855 7.83294 0.00148855H0V4.09606H7.83294C9.85818 4.09606 11.5041 5.66378 11.5041 7.5895L11.5182 25.4833C11.7032 27.9729 13.8899 29.9463 16.5531 29.9463C19.2163 29.9463 21.403 27.9743 21.588 25.4833L21.6021 7.5895C21.6021 5.66378 23.2496 4.09606 25.2732 4.09606H33.1046V0.00148855H25.2732V0Z" fill="white"/>
</svg>
