<svg width="1880" height="160" viewBox="0 0 1880 160" fill="none" xmlns="http://www.w3.org/2000/svg">
<path d="M174.413 49.8257C162.574 49.8257 150.523 50.8769 138.262 52.9792C126.423 55.0816 115.641 58.8658 105.916 64.3319C96.1912 69.3776 88.1577 76.5256 81.8154 85.7759C75.8959 94.6058 72.9362 105.959 72.9362 119.834C72.9362 136.653 77.3758 150.318 86.255 160.83C95.1342 170.921 105.916 178.7 118.601 184.166C128.748 188.371 139.53 191.945 150.946 194.888C162.362 197.831 173.99 200.564 185.829 203.087C198.091 205.61 209.929 208.133 221.346 210.656C233.184 213.178 244.601 216.332 255.594 220.116C281.386 228.946 301.892 241.56 317.114 257.958C332.758 274.357 340.58 296.011 340.58 322.921C340.58 348.149 336.141 368.963 327.262 385.361C318.805 401.759 307.178 415.214 292.379 425.726C278.003 436.238 261.09 444.017 241.641 449.062C222.614 453.687 202.319 456 180.755 456C159.191 456 138.473 453.898 118.601 449.693C99.151 445.488 81.3926 438.551 65.3255 428.88C49.2584 419.209 35.5168 406.595 24.1007 391.037C12.6846 375.48 4.651 356.559 0 334.274H57.7147C61.9429 348.57 68.4966 360.343 77.3758 369.593C86.255 378.844 96.4026 386.202 107.819 391.668C119.235 397.134 131.497 400.918 144.604 403.021C158.134 405.123 171.453 406.174 184.56 406.174C197.245 406.174 209.507 404.913 221.346 402.39C233.607 399.447 244.389 395.032 253.691 389.145C262.993 383.259 270.392 375.69 275.889 366.44C281.386 357.189 284.134 346.047 284.134 333.012C284.134 313.25 278.849 298.534 268.278 288.863C257.708 279.192 243.544 271.834 225.785 266.788C213.946 263.004 201.473 259.851 188.366 257.328C175.258 254.805 162.151 252.072 149.044 249.129C135.936 246.185 123.04 242.822 110.356 239.037C97.6711 234.833 86.0436 229.997 75.4731 224.531C58.5604 216.542 44.396 204.349 32.9799 187.95C21.5637 171.131 15.8557 150.108 15.8557 124.88C15.8557 101.333 20.5067 81.5712 29.8087 65.5934C39.1107 49.6155 51.161 36.7911 65.9597 27.1203C80.7584 17.4495 97.2483 10.5117 115.429 6.30705C134.033 2.10235 153.695 0 174.413 0C191.325 0.420465 206.547 1.89212 220.077 4.41496C234.03 6.51731 247.137 10.5118 259.399 16.3984C278.426 24.8078 294.282 37.4219 306.966 54.2407C319.651 71.0595 326.627 92.7137 327.896 119.203H273.986C272.295 106.169 268.278 95.2365 261.936 86.4067C256.017 77.5768 248.617 70.4288 239.738 64.9626C230.859 59.4966 220.711 55.7123 209.295 53.6099C198.302 51.0871 186.674 49.8257 174.413 49.8257Z" fill="white"/>
<path d="M511.554 450.954V54.8714H367.585V5.04565H710.702V54.8714H566.732V450.954H511.554Z" fill="white"/>
<path d="M1034.49 450.954L998.978 355.087H776.999L741.482 450.954H681.864L848.666 5.04565H927.945L1094.11 450.954H1034.49ZM887.988 52.9792L795.391 305.261H980.586L887.988 52.9792Z" fill="white"/>
<path d="M1198.08 283.817V450.954H1142.9V5.04565H1310.97C1335.49 5.04565 1357.69 7.56847 1377.56 12.6141C1397.44 17.6597 1414.35 25.6487 1428.3 36.5809C1442.25 47.5131 1452.82 62.0194 1460.01 80.0996C1467.62 97.7594 1471.43 119.203 1471.43 144.432C1471.43 162.932 1468.68 179.541 1463.18 194.257C1457.69 208.553 1450.29 221.167 1440.99 232.1C1432.11 242.611 1421.54 251.441 1409.27 258.589C1397.01 265.317 1384.33 270.573 1371.22 274.357L1465.09 450.954H1404.83L1315.41 283.817H1198.08ZM1293.21 233.992C1309.7 233.992 1325.13 232.73 1339.51 230.207C1354.31 227.685 1367.2 223.059 1378.2 216.332C1389.19 209.604 1397.86 200.564 1404.2 189.212C1410.97 177.438 1414.56 161.881 1414.98 142.539C1414.98 110.584 1405.47 88.0885 1386.44 75.0539C1367.84 61.5989 1340.78 54.8714 1305.26 54.8714H1198.08V233.992H1293.21Z" fill="white"/>
<path d="M1547.66 450.954V5.04565H1602.84V210.656H1668.8L1815.31 5.04565H1878.73L1717.64 226.423L1880 450.954H1814.67L1673.88 260.481H1602.84V450.954H1547.66Z" fill="white"/>
</svg>
