<svg width="25" height="24" viewBox="0 0 25 24" fill="none" xmlns="http://www.w3.org/2000/svg">
<path d="M14.5 5.6C14.5 5.03995 14.5 4.75992 14.609 4.54601C14.7049 4.35785 14.8578 4.20487 15.046 4.10899C15.2599 4 15.5399 4 16.1 4H18.9C19.4601 4 19.7401 4 19.954 4.10899C20.1422 4.20487 20.2951 4.35785 20.391 4.54601C20.5 4.75992 20.5 5.03995 20.5 5.6V8.4C20.5 8.96005 20.5 9.24008 20.391 9.45399C20.2951 9.64215 20.1422 9.79513 19.954 9.89101C19.7401 10 19.4601 10 18.9 10H16.1C15.5399 10 15.2599 10 15.046 9.89101C14.8578 9.79513 14.7049 9.64215 14.609 9.45399C14.5 9.24008 14.5 8.96005 14.5 8.4V5.6Z" stroke="#0D0D0D" stroke-width="2" stroke-linecap="round" stroke-linejoin="round"/>
<path d="M4.5 5.6C4.5 5.03995 4.5 4.75992 4.60899 4.54601C4.70487 4.35785 4.85785 4.20487 5.04601 4.10899C5.25992 4 5.53995 4 6.1 4H8.9C9.46005 4 9.74008 4 9.95399 4.10899C10.1422 4.20487 10.2951 4.35785 10.391 4.54601C10.5 4.75992 10.5 5.03995 10.5 5.6V8.4C10.5 8.96005 10.5 9.24008 10.391 9.45399C10.2951 9.64215 10.1422 9.79513 9.95399 9.89101C9.74008 10 9.46005 10 8.9 10H6.1C5.53995 10 5.25992 10 5.04601 9.89101C4.85785 9.79513 4.70487 9.64215 4.60899 9.45399C4.5 9.24008 4.5 8.96005 4.5 8.4V5.6Z" stroke="#0D0D0D" stroke-width="2" stroke-linecap="round" stroke-linejoin="round"/>
<path d="M4.5 15.6C4.5 15.0399 4.5 14.7599 4.60899 14.546C4.70487 14.3578 4.85785 14.2049 5.04601 14.109C5.25992 14 5.53995 14 6.1 14H8.9C9.46005 14 9.74008 14 9.95399 14.109C10.1422 14.2049 10.2951 14.3578 10.391 14.546C10.5 14.7599 10.5 15.0399 10.5 15.6V18.4C10.5 18.9601 10.5 19.2401 10.391 19.454C10.2951 19.6422 10.1422 19.7951 9.95399 19.891C9.74008 20 9.46005 20 8.9 20H6.1C5.53995 20 5.25992 20 5.04601 19.891C4.85785 19.7951 4.70487 19.6422 4.60899 19.454C4.5 19.2401 4.5 18.9601 4.5 18.4V15.6Z" stroke="#0D0D0D" stroke-width="2" stroke-linecap="round" stroke-linejoin="round"/>
<path d="M14.5 15.6C14.5 15.0399 14.5 14.7599 14.609 14.546C14.7049 14.3578 14.8578 14.2049 15.046 14.109C15.2599 14 15.5399 14 16.1 14H18.9C19.4601 14 19.7401 14 19.954 14.109C20.1422 14.2049 20.2951 14.3578 20.391 14.546C20.5 14.7599 20.5 15.0399 20.5 15.6V18.4C20.5 18.9601 20.5 19.2401 20.391 19.454C20.2951 19.6422 20.1422 19.7951 19.954 19.891C19.7401 20 19.4601 20 18.9 20H16.1C15.5399 20 15.2599 20 15.046 19.891C14.8578 19.7951 14.7049 19.6422 14.609 19.454C14.5 19.2401 14.5 18.9601 14.5 18.4V15.6Z" stroke="#0D0D0D" stroke-width="2" stroke-linecap="round" stroke-linejoin="round"/>
</svg>
