<svg width="30" height="30" viewBox="0 0 30 30" fill="none" xmlns="http://www.w3.org/2000/svg">
<path d="M20.0521 11.5137C22.079 12.6538 23.0924 13.2238 23.43 13.9729C23.7243 14.626 23.7243 15.3739 23.43 16.027C23.0924 16.7761 22.079 17.3462 20.0521 18.4863L12.211 22.8969C10.2515 23.9991 9.27172 24.5503 8.46918 24.4595C7.76902 24.3804 7.13477 24.0094 6.72253 23.438C6.25 22.783 6.25 21.6589 6.25 19.4106V10.5894C6.25 8.34108 6.25 7.21693 6.72253 6.56194C7.13477 5.9905 7.76902 5.61956 8.46918 5.54041C9.27172 5.44969 10.2515 6.00081 12.211 7.10306L20.0521 11.5137Z" stroke="#024D7F" stroke-width="2" stroke-linecap="round" stroke-linejoin="round"/>
</svg>
